{
	"asset":{
		"version":"2.0",
		"generator":"Created using the official Cinema 4D glTF Exporter 1.000x284978"
	},
	"scenes":[{
		"nodes":[0]
	}],
	"buffers":[{
		"uri":"data:application/octet-stream;base64,",
		"byteLength":86252
	}],
	"nodes":[{
		"name":"Default",
		"mesh":0
	}],
	"meshes":[{
		"name":"Default",
		"primitives":[{
			"attributes":{
				"POSITION":1,
				"NORMAL":2,
				"TEXCOORD_0":3
			},
			"indices":0,
			"material":0
		}]
	}],
	"accessors":[{
		"bufferView":0,
		"type":"SCALAR",
		"componentType":5123,
		"count":10182,
		"byteOffset":0,
		"min":[0],
		"max":[2058]
	},
	{
		"bufferView":1,
		"type":"VEC3",
		"componentType":5126,
		"count":2059,
		"byteOffset":0,
		"min":[-1.0082119703292847,
		-1.9888916015625,
		0.13037917017936707],
		"max":[1.0082119703292847,
		2.4496240615844728,
		1.111304759979248]
	},
	{
		"bufferView":1,
		"type":"VEC3",
		"componentType":5126,
		"count":2059,
		"byteOffset":12,
		"min":[-1.0,
		-1.0,
		-1.0],
		"max":[1.0,
		1.0,
		0.5701509714126587]
	},
	{
		"bufferView":1,
		"type":"VEC2",
		"componentType":5126,
		"count":2059,
		"byteOffset":24,
		"min":[0.009109999984502793,
		0.2568399906158447],
		"max":[0.990880012512207,
		0.9931700229644775]
	}],
	"bufferViews":[{
		"buffer":0,
		"byteOffset":0,
		"byteLength":20364,
		"target":34963
	},
	{
		"buffer":0,
		"byteOffset":20364,
		"byteStride":32,
		"byteLength":65888,
		"target":34962
	}],
	"images":[{
		"uri":"data:image/jpeg;base64,"
	}],
	"samplers":[{
		"magFilter":9729,
		"minFilter":9729,
		"wrapS":10497,
		"wrapT":10497
	}],
	"textures":[{
		"sampler":0,
		"source":0
	}],
	"materials":[{
		"pbrMetallicRoughness":{
			"baseColorTexture":{
				"index":0
			},
			"baseColorFactor":[1.0,
			1.0,
			1.0,
			1.0],
			"metallicFactor":0.0,
			"roughnessFactor":0.5
		},
		"emissiveFactor":[0.0,
		0.0,
		0.0],
		"alphaMode":"OPAQUE",
		"doubleSided":false,
		"name":"defaultMat"
	}]
}